<mxfile host="65bd71144e">
    <diagram id="USKkyEOaRrNQfbzW1Fr1" name="Basic Gameflow">
        <mxGraphModel dx="2224" dy="756" grid="1" gridSize="10" guides="1" tooltips="1" connect="1" arrows="1" fold="1" page="1" pageScale="1" pageWidth="850" pageHeight="1100" math="0" shadow="0">
            <root>
                <mxCell id="qlAkPyl5cNr9iGpzvcm5-0"/>
                <mxCell id="qlAkPyl5cNr9iGpzvcm5-1" parent="qlAkPyl5cNr9iGpzvcm5-0"/>
                <mxCell id="s3oVJCjhCxJ-xsU6XBvE-8" style="edgeStyle=orthogonalEdgeStyle;rounded=1;sketch=1;orthogonalLoop=1;jettySize=auto;html=1;entryX=0.5;entryY=0;entryDx=0;entryDy=0;shadow=0;endArrow=classic;endFill=1;" parent="qlAkPyl5cNr9iGpzvcm5-1" source="qlAkPyl5cNr9iGpzvcm5-2" target="s3oVJCjhCxJ-xsU6XBvE-5" edge="1">
                    <mxGeometry relative="1" as="geometry"/>
                </mxCell>
                <mxCell id="qlAkPyl5cNr9iGpzvcm5-2" value="" style="ellipse;rounded=1;shadow=0;dashed=0;sketch=1;verticalAlign=middle;fillStyle=zigzag;fillColor=#000000;" parent="qlAkPyl5cNr9iGpzvcm5-1" vertex="1">
                    <mxGeometry x="410" y="100" width="30" height="30" as="geometry"/>
                </mxCell>
                <mxCell id="s3oVJCjhCxJ-xsU6XBvE-20" style="edgeStyle=orthogonalEdgeStyle;rounded=1;sketch=1;orthogonalLoop=1;jettySize=auto;html=1;entryX=0.169;entryY=0.729;entryDx=0;entryDy=0;entryPerimeter=0;shadow=0;endArrow=classic;endFill=1;" parent="qlAkPyl5cNr9iGpzvcm5-1" source="s3oVJCjhCxJ-xsU6XBvE-2" target="s3oVJCjhCxJ-xsU6XBvE-19" edge="1">
                    <mxGeometry relative="1" as="geometry"/>
                </mxCell>
                <mxCell id="s3oVJCjhCxJ-xsU6XBvE-2" value="Minigames" style="ellipse;sketch=1;shadow=0;rounded=1;dashed=0;verticalAlign=middle;fillColor=#000000;arcSize=10;" parent="qlAkPyl5cNr9iGpzvcm5-1" vertex="1">
                    <mxGeometry x="240" y="560" width="155" height="45" as="geometry"/>
                </mxCell>
                <mxCell id="GWxMIq-dXI1oTxM73p6J-2" value="" style="edgeStyle=none;sketch=1;html=1;endArrow=classic;endFill=1;" parent="qlAkPyl5cNr9iGpzvcm5-1" source="s3oVJCjhCxJ-xsU6XBvE-5" target="s3oVJCjhCxJ-xsU6XBvE-7" edge="1">
                    <mxGeometry relative="1" as="geometry"/>
                </mxCell>
                <mxCell id="s3oVJCjhCxJ-xsU6XBvE-5" value="Beitritt in Gruppe&lt;br&gt;-&amp;gt; als Spielführer" style="html=1;align=center;verticalAlign=top;rounded=1;absoluteArcSize=1;arcSize=10;dashed=0;sketch=1;shadow=0;fillColor=#000000;" parent="qlAkPyl5cNr9iGpzvcm5-1" vertex="1">
                    <mxGeometry x="348" y="200" width="155" height="40" as="geometry"/>
                </mxCell>
                <mxCell id="s3oVJCjhCxJ-xsU6XBvE-6" value="&lt;font style=&quot;font-size: 10px&quot;&gt;Follower &quot;treten in die Fußstapfen&quot; des Spielführers.&lt;/font&gt;" style="shape=note2;boundedLbl=1;whiteSpace=wrap;html=1;size=25;verticalAlign=top;align=left;sketch=1;shadow=0;rounded=1;dashed=0;fillColor=#000000;arcSize=10;" parent="qlAkPyl5cNr9iGpzvcm5-1" vertex="1">
                    <mxGeometry x="-220" y="1050" width="130" height="100" as="geometry"/>
                </mxCell>
                <mxCell id="GWxMIq-dXI1oTxM73p6J-3" value="" style="edgeStyle=none;sketch=1;html=1;endArrow=classic;endFill=1;" parent="qlAkPyl5cNr9iGpzvcm5-1" source="s3oVJCjhCxJ-xsU6XBvE-7" target="0" edge="1">
                    <mxGeometry relative="1" as="geometry"/>
                </mxCell>
                <mxCell id="s3oVJCjhCxJ-xsU6XBvE-7" value="&lt;p style=&quot;text-align: right ; line-height: 90%&quot;&gt;&lt;span style=&quot;line-height: 20%&quot;&gt;Tutorial&lt;/span&gt;&lt;br&gt;&lt;/p&gt;" style="shape=mxgraph.uml25.behaviorAction;html=1;rounded=1;absoluteArcSize=1;arcSize=10;align=center;shadow=0;sketch=1;dashed=0;verticalAlign=top;fillColor=#000000;" parent="qlAkPyl5cNr9iGpzvcm5-1" vertex="1">
                    <mxGeometry x="338" y="290" width="175" height="50" as="geometry"/>
                </mxCell>
                <mxCell id="s3oVJCjhCxJ-xsU6XBvE-16" style="edgeStyle=orthogonalEdgeStyle;rounded=1;sketch=1;orthogonalLoop=1;jettySize=auto;html=1;shadow=0;endArrow=classic;endFill=1;exitX=1.238;exitY=0.729;exitDx=0;exitDy=0;exitPerimeter=0;" parent="qlAkPyl5cNr9iGpzvcm5-1" source="s3oVJCjhCxJ-xsU6XBvE-14" target="s3oVJCjhCxJ-xsU6XBvE-2" edge="1">
                    <mxGeometry relative="1" as="geometry"/>
                </mxCell>
                <mxCell id="s3oVJCjhCxJ-xsU6XBvE-18" style="edgeStyle=orthogonalEdgeStyle;rounded=1;sketch=1;orthogonalLoop=1;jettySize=auto;html=1;entryX=0.5;entryY=0;entryDx=0;entryDy=0;shadow=0;endArrow=classic;endFill=1;exitX=1.169;exitY=0.239;exitDx=0;exitDy=0;exitPerimeter=0;" parent="qlAkPyl5cNr9iGpzvcm5-1" source="s3oVJCjhCxJ-xsU6XBvE-14" target="s3oVJCjhCxJ-xsU6XBvE-17" edge="1">
                    <mxGeometry relative="1" as="geometry"/>
                </mxCell>
                <mxCell id="s3oVJCjhCxJ-xsU6XBvE-14" value="" style="html=1;points=[];perimeter=orthogonalPerimeter;fillColor=#000000;rounded=1;shadow=0;dashed=0;sketch=1;verticalAlign=middle;direction=south;" parent="qlAkPyl5cNr9iGpzvcm5-1" vertex="1">
                    <mxGeometry x="305" y="480" width="239.5" height="10" as="geometry"/>
                </mxCell>
                <mxCell id="s3oVJCjhCxJ-xsU6XBvE-21" style="edgeStyle=orthogonalEdgeStyle;rounded=1;sketch=1;orthogonalLoop=1;jettySize=auto;html=1;entryX=0.1;entryY=0.225;entryDx=0;entryDy=0;entryPerimeter=0;shadow=0;endArrow=classic;endFill=1;" parent="qlAkPyl5cNr9iGpzvcm5-1" source="s3oVJCjhCxJ-xsU6XBvE-17" target="s3oVJCjhCxJ-xsU6XBvE-19" edge="1">
                    <mxGeometry relative="1" as="geometry"/>
                </mxCell>
                <mxCell id="s3oVJCjhCxJ-xsU6XBvE-17" value="Recruting Followers" style="ellipse;sketch=1;shadow=0;rounded=1;dashed=0;verticalAlign=middle;fillColor=#000000;arcSize=10;" parent="qlAkPyl5cNr9iGpzvcm5-1" vertex="1">
                    <mxGeometry x="460" y="557.5" width="155" height="50" as="geometry"/>
                </mxCell>
                <mxCell id="s3oVJCjhCxJ-xsU6XBvE-39" style="edgeStyle=orthogonalEdgeStyle;rounded=1;sketch=1;orthogonalLoop=1;jettySize=auto;html=1;entryX=0.5;entryY=0;entryDx=0;entryDy=0;shadow=0;endArrow=classic;endFill=1;" parent="qlAkPyl5cNr9iGpzvcm5-1" source="s3oVJCjhCxJ-xsU6XBvE-19" target="s3oVJCjhCxJ-xsU6XBvE-38" edge="1">
                    <mxGeometry relative="1" as="geometry"/>
                </mxCell>
                <mxCell id="s3oVJCjhCxJ-xsU6XBvE-19" value="" style="html=1;points=[];perimeter=orthogonalPerimeter;fillColor=#000000;rounded=1;shadow=0;dashed=0;sketch=1;verticalAlign=middle;direction=south;" parent="qlAkPyl5cNr9iGpzvcm5-1" vertex="1">
                    <mxGeometry x="305" y="670" width="239.5" height="10" as="geometry"/>
                </mxCell>
                <mxCell id="s3oVJCjhCxJ-xsU6XBvE-34" style="edgeStyle=orthogonalEdgeStyle;rounded=1;sketch=1;orthogonalLoop=1;jettySize=auto;html=1;shadow=0;endArrow=classic;endFill=1;" parent="qlAkPyl5cNr9iGpzvcm5-1" source="s3oVJCjhCxJ-xsU6XBvE-25" target="s3oVJCjhCxJ-xsU6XBvE-30" edge="1">
                    <mxGeometry relative="1" as="geometry"/>
                </mxCell>
                <mxCell id="s3oVJCjhCxJ-xsU6XBvE-25" value="Aufstieg innerhalb &lt;br&gt;der Gruppe (1 Rang)" style="html=1;align=center;verticalAlign=top;rounded=1;absoluteArcSize=1;arcSize=10;dashed=0;sketch=1;shadow=0;fillColor=#000000;" parent="qlAkPyl5cNr9iGpzvcm5-1" vertex="1">
                    <mxGeometry x="347.25" y="780" width="155" height="40" as="geometry"/>
                </mxCell>
                <mxCell id="s3oVJCjhCxJ-xsU6XBvE-26" style="edgeStyle=orthogonalEdgeStyle;rounded=1;sketch=1;orthogonalLoop=1;jettySize=auto;html=1;entryX=0.169;entryY=0.729;entryDx=0;entryDy=0;entryPerimeter=0;shadow=0;endArrow=classic;endFill=1;" parent="qlAkPyl5cNr9iGpzvcm5-1" source="s3oVJCjhCxJ-xsU6XBvE-27" target="s3oVJCjhCxJ-xsU6XBvE-33" edge="1">
                    <mxGeometry relative="1" as="geometry"/>
                </mxCell>
                <mxCell id="s3oVJCjhCxJ-xsU6XBvE-27" value="Minigames" style="ellipse;sketch=1;shadow=0;rounded=1;dashed=0;verticalAlign=middle;fillColor=#000000;arcSize=10;" parent="qlAkPyl5cNr9iGpzvcm5-1" vertex="1">
                    <mxGeometry x="150" y="952.5" width="155" height="45" as="geometry"/>
                </mxCell>
                <mxCell id="s3oVJCjhCxJ-xsU6XBvE-28" style="edgeStyle=orthogonalEdgeStyle;rounded=1;sketch=1;orthogonalLoop=1;jettySize=auto;html=1;shadow=0;endArrow=classic;endFill=1;exitX=1.238;exitY=0.729;exitDx=0;exitDy=0;exitPerimeter=0;" parent="qlAkPyl5cNr9iGpzvcm5-1" source="s3oVJCjhCxJ-xsU6XBvE-30" target="s3oVJCjhCxJ-xsU6XBvE-27" edge="1">
                    <mxGeometry relative="1" as="geometry"/>
                </mxCell>
                <mxCell id="s3oVJCjhCxJ-xsU6XBvE-29" style="edgeStyle=orthogonalEdgeStyle;rounded=1;sketch=1;orthogonalLoop=1;jettySize=auto;html=1;entryX=0.5;entryY=0;entryDx=0;entryDy=0;shadow=0;endArrow=classic;endFill=1;exitX=1.262;exitY=0.5;exitDx=0;exitDy=0;exitPerimeter=0;" parent="qlAkPyl5cNr9iGpzvcm5-1" source="s3oVJCjhCxJ-xsU6XBvE-30" target="s3oVJCjhCxJ-xsU6XBvE-32" edge="1">
                    <mxGeometry relative="1" as="geometry"/>
                </mxCell>
                <mxCell id="s3oVJCjhCxJ-xsU6XBvE-36" style="edgeStyle=orthogonalEdgeStyle;rounded=1;sketch=1;orthogonalLoop=1;jettySize=auto;html=1;shadow=0;endArrow=classic;endFill=1;exitX=0.986;exitY=0.272;exitDx=0;exitDy=0;exitPerimeter=0;entryX=0.5;entryY=0;entryDx=0;entryDy=0;" parent="qlAkPyl5cNr9iGpzvcm5-1" source="s3oVJCjhCxJ-xsU6XBvE-30" target="s3oVJCjhCxJ-xsU6XBvE-35" edge="1">
                    <mxGeometry relative="1" as="geometry">
                        <mxPoint x="658" y="950" as="targetPoint"/>
                    </mxGeometry>
                </mxCell>
                <mxCell id="s3oVJCjhCxJ-xsU6XBvE-30" value="" style="html=1;points=[];perimeter=orthogonalPerimeter;fillColor=#000000;rounded=1;shadow=0;dashed=0;sketch=1;verticalAlign=middle;direction=south;" parent="qlAkPyl5cNr9iGpzvcm5-1" vertex="1">
                    <mxGeometry x="305" y="857" width="239.5" height="10" as="geometry"/>
                </mxCell>
                <mxCell id="s3oVJCjhCxJ-xsU6XBvE-31" style="edgeStyle=orthogonalEdgeStyle;rounded=1;sketch=1;orthogonalLoop=1;jettySize=auto;html=1;entryX=0.124;entryY=0.5;entryDx=0;entryDy=0;entryPerimeter=0;shadow=0;endArrow=classic;endFill=1;" parent="qlAkPyl5cNr9iGpzvcm5-1" source="s3oVJCjhCxJ-xsU6XBvE-32" target="s3oVJCjhCxJ-xsU6XBvE-33" edge="1">
                    <mxGeometry relative="1" as="geometry"/>
                </mxCell>
                <mxCell id="s3oVJCjhCxJ-xsU6XBvE-32" value="Recruting Followers" style="ellipse;sketch=1;shadow=0;rounded=1;dashed=0;verticalAlign=middle;fillColor=#000000;arcSize=10;" parent="qlAkPyl5cNr9iGpzvcm5-1" vertex="1">
                    <mxGeometry x="347.25" y="947.5" width="155" height="50" as="geometry"/>
                </mxCell>
                <mxCell id="s3oVJCjhCxJ-xsU6XBvE-43" style="edgeStyle=orthogonalEdgeStyle;rounded=1;sketch=1;orthogonalLoop=1;jettySize=auto;html=1;shadow=0;endArrow=classic;endFill=1;entryX=0.5;entryY=0;entryDx=0;entryDy=0;" parent="qlAkPyl5cNr9iGpzvcm5-1" source="s3oVJCjhCxJ-xsU6XBvE-33" target="s3oVJCjhCxJ-xsU6XBvE-42" edge="1">
                    <mxGeometry relative="1" as="geometry">
                        <mxPoint x="490" y="1100" as="targetPoint"/>
                    </mxGeometry>
                </mxCell>
                <mxCell id="s3oVJCjhCxJ-xsU6XBvE-33" value="" style="html=1;points=[];perimeter=orthogonalPerimeter;fillColor=#000000;rounded=1;shadow=0;dashed=0;sketch=1;verticalAlign=middle;direction=south;" parent="qlAkPyl5cNr9iGpzvcm5-1" vertex="1">
                    <mxGeometry x="305" y="1047" width="239.5" height="10" as="geometry"/>
                </mxCell>
                <mxCell id="s3oVJCjhCxJ-xsU6XBvE-37" style="edgeStyle=orthogonalEdgeStyle;rounded=1;sketch=1;orthogonalLoop=1;jettySize=auto;html=1;entryX=-0.014;entryY=0.232;entryDx=0;entryDy=0;entryPerimeter=0;shadow=0;endArrow=classic;endFill=1;exitX=0.5;exitY=1;exitDx=0;exitDy=0;" parent="qlAkPyl5cNr9iGpzvcm5-1" source="s3oVJCjhCxJ-xsU6XBvE-35" target="s3oVJCjhCxJ-xsU6XBvE-33" edge="1">
                    <mxGeometry relative="1" as="geometry"/>
                </mxCell>
                <mxCell id="s3oVJCjhCxJ-xsU6XBvE-35" value="Managing Ressources" style="ellipse;sketch=1;shadow=0;rounded=1;dashed=0;verticalAlign=middle;fillColor=#000000;arcSize=10;" parent="qlAkPyl5cNr9iGpzvcm5-1" vertex="1">
                    <mxGeometry x="545" y="947.5" width="155" height="50" as="geometry"/>
                </mxCell>
                <mxCell id="s3oVJCjhCxJ-xsU6XBvE-40" style="edgeStyle=orthogonalEdgeStyle;rounded=1;sketch=1;orthogonalLoop=1;jettySize=auto;html=1;entryX=0.5;entryY=0;entryDx=0;entryDy=0;shadow=0;endArrow=classic;endFill=1;" parent="qlAkPyl5cNr9iGpzvcm5-1" source="s3oVJCjhCxJ-xsU6XBvE-38" target="s3oVJCjhCxJ-xsU6XBvE-25" edge="1">
                    <mxGeometry relative="1" as="geometry"/>
                </mxCell>
                <mxCell id="s3oVJCjhCxJ-xsU6XBvE-38" value="" style="rhombus;rounded=1;shadow=0;dashed=0;sketch=1;strokeColor=#f0f0f0;fillColor=#000000;verticalAlign=middle;" parent="qlAkPyl5cNr9iGpzvcm5-1" vertex="1">
                    <mxGeometry x="409.75" y="710" width="30" height="30" as="geometry"/>
                </mxCell>
                <mxCell id="s3oVJCjhCxJ-xsU6XBvE-44" style="edgeStyle=orthogonalEdgeStyle;rounded=1;sketch=1;orthogonalLoop=1;jettySize=auto;html=1;entryX=1;entryY=0.5;entryDx=0;entryDy=0;shadow=0;endArrow=classic;endFill=1;" parent="qlAkPyl5cNr9iGpzvcm5-1" source="s3oVJCjhCxJ-xsU6XBvE-42" target="s3oVJCjhCxJ-xsU6XBvE-38" edge="1">
                    <mxGeometry relative="1" as="geometry">
                        <Array as="points">
                            <mxPoint x="740" y="1115"/>
                            <mxPoint x="740" y="725"/>
                        </Array>
                    </mxGeometry>
                </mxCell>
                <mxCell id="s3oVJCjhCxJ-xsU6XBvE-48" style="edgeStyle=orthogonalEdgeStyle;rounded=1;sketch=1;orthogonalLoop=1;jettySize=auto;html=1;entryX=1;entryY=0.5;entryDx=0;entryDy=0;shadow=0;endArrow=classic;endFill=1;" parent="qlAkPyl5cNr9iGpzvcm5-1" source="s3oVJCjhCxJ-xsU6XBvE-42" target="s3oVJCjhCxJ-xsU6XBvE-47" edge="1">
                    <mxGeometry relative="1" as="geometry"/>
                </mxCell>
                <mxCell id="s3oVJCjhCxJ-xsU6XBvE-42" value="" style="rhombus;rounded=1;shadow=0;dashed=0;sketch=1;strokeColor=#f0f0f0;fillColor=#000000;verticalAlign=middle;" parent="qlAkPyl5cNr9iGpzvcm5-1" vertex="1">
                    <mxGeometry x="409.75" y="1100" width="30" height="30" as="geometry"/>
                </mxCell>
                <mxCell id="s3oVJCjhCxJ-xsU6XBvE-53" style="edgeStyle=orthogonalEdgeStyle;rounded=1;sketch=1;orthogonalLoop=1;jettySize=auto;html=1;entryX=0.5;entryY=0;entryDx=0;entryDy=0;shadow=0;endArrow=classic;endFill=1;" parent="qlAkPyl5cNr9iGpzvcm5-1" source="s3oVJCjhCxJ-xsU6XBvE-47" target="s3oVJCjhCxJ-xsU6XBvE-52" edge="1">
                    <mxGeometry relative="1" as="geometry"/>
                </mxCell>
                <mxCell id="s3oVJCjhCxJ-xsU6XBvE-47" value="Vergabe von Rängen&#10; an Follwoer" style="ellipse;sketch=1;shadow=0;rounded=1;dashed=0;verticalAlign=middle;fillColor=#000000;arcSize=10;" parent="qlAkPyl5cNr9iGpzvcm5-1" vertex="1">
                    <mxGeometry x="150" y="1086.25" width="155" height="57.5" as="geometry"/>
                </mxCell>
                <mxCell id="s3oVJCjhCxJ-xsU6XBvE-56" style="edgeStyle=orthogonalEdgeStyle;rounded=1;sketch=1;orthogonalLoop=1;jettySize=auto;html=1;entryX=0.5;entryY=1;entryDx=0;entryDy=0;shadow=0;endArrow=classic;endFill=1;exitX=0.5;exitY=1;exitDx=0;exitDy=0;" parent="qlAkPyl5cNr9iGpzvcm5-1" source="s3oVJCjhCxJ-xsU6XBvE-49" target="s3oVJCjhCxJ-xsU6XBvE-52" edge="1">
                    <mxGeometry relative="1" as="geometry"/>
                </mxCell>
                <mxCell id="s3oVJCjhCxJ-xsU6XBvE-58" style="edgeStyle=orthogonalEdgeStyle;rounded=1;sketch=1;orthogonalLoop=1;jettySize=auto;html=1;entryX=0;entryY=0;entryDx=130;entryDy=62.5;entryPerimeter=0;shadow=0;endArrow=none;endFill=0;dashed=1;" parent="qlAkPyl5cNr9iGpzvcm5-1" source="s3oVJCjhCxJ-xsU6XBvE-49" target="s3oVJCjhCxJ-xsU6XBvE-6" edge="1">
                    <mxGeometry relative="1" as="geometry"/>
                </mxCell>
                <mxCell id="s3oVJCjhCxJ-xsU6XBvE-49" value="Abgabe von Gebieten,&#10;Aufgabenbereichen" style="ellipse;sketch=1;shadow=0;rounded=1;dashed=0;verticalAlign=middle;fillColor=#000000;arcSize=10;" parent="qlAkPyl5cNr9iGpzvcm5-1" vertex="1">
                    <mxGeometry x="-10" y="1166.25" width="155" height="57.5" as="geometry"/>
                </mxCell>
                <mxCell id="s3oVJCjhCxJ-xsU6XBvE-54" style="edgeStyle=orthogonalEdgeStyle;rounded=1;sketch=1;orthogonalLoop=1;jettySize=auto;html=1;entryX=0.5;entryY=1;entryDx=0;entryDy=0;shadow=0;endArrow=classic;endFill=1;" parent="qlAkPyl5cNr9iGpzvcm5-1" source="s3oVJCjhCxJ-xsU6XBvE-52" target="s3oVJCjhCxJ-xsU6XBvE-42" edge="1">
                    <mxGeometry relative="1" as="geometry"/>
                </mxCell>
                <mxCell id="s3oVJCjhCxJ-xsU6XBvE-55" style="edgeStyle=orthogonalEdgeStyle;rounded=1;sketch=1;orthogonalLoop=1;jettySize=auto;html=1;entryX=1;entryY=0.5;entryDx=0;entryDy=0;shadow=0;endArrow=classic;endFill=1;" parent="qlAkPyl5cNr9iGpzvcm5-1" source="s3oVJCjhCxJ-xsU6XBvE-52" target="s3oVJCjhCxJ-xsU6XBvE-49" edge="1">
                    <mxGeometry relative="1" as="geometry"/>
                </mxCell>
                <mxCell id="s3oVJCjhCxJ-xsU6XBvE-52" value="" style="rhombus;rounded=1;shadow=0;dashed=0;sketch=1;strokeColor=#f0f0f0;fillColor=#000000;verticalAlign=middle;" parent="qlAkPyl5cNr9iGpzvcm5-1" vertex="1">
                    <mxGeometry x="212.5" y="1180" width="30" height="30" as="geometry"/>
                </mxCell>
                <mxCell id="2" style="edgeStyle=none;html=1;entryX=0;entryY=0.497;entryDx=0;entryDy=0;entryPerimeter=0;sketch=1;" parent="qlAkPyl5cNr9iGpzvcm5-1" source="0" target="s3oVJCjhCxJ-xsU6XBvE-14" edge="1">
                    <mxGeometry relative="1" as="geometry"/>
                </mxCell>
                <mxCell id="0" value="Minigames" style="ellipse;sketch=1;shadow=0;rounded=1;dashed=0;verticalAlign=middle;fillColor=#000000;arcSize=10;" parent="qlAkPyl5cNr9iGpzvcm5-1" vertex="1">
                    <mxGeometry x="348" y="380" width="155" height="45" as="geometry"/>
                </mxCell>
            </root>
        </mxGraphModel>
    </diagram>
    <diagram id="jHlkEFjDq9KfJpPSAqiX" name="Game - Spielführer">
        <mxGraphModel dx="1374" dy="1856" grid="1" gridSize="10" guides="1" tooltips="1" connect="1" arrows="1" fold="1" page="1" pageScale="1" pageWidth="850" pageHeight="1100" math="0" shadow="0">
            <root>
                <mxCell id="0"/>
                <mxCell id="1" parent="0"/>
                <mxCell id="BbYcGQPHmIxh3Ic0CF0f-14" value="" style="edgeStyle=none;html=1;" parent="1" source="2" target="BbYcGQPHmIxh3Ic0CF0f-13" edge="1">
                    <mxGeometry relative="1" as="geometry"/>
                </mxCell>
                <mxCell id="2" value="" style="ellipse;sketch=1;shadow=0;fillStyle=zigzag;fillColor=#000000;" parent="1" vertex="1">
                    <mxGeometry x="410" y="-90" width="30" height="30" as="geometry"/>
                </mxCell>
                <mxCell id="13" style="edgeStyle=orthogonalEdgeStyle;rounded=1;sketch=1;orthogonalLoop=1;jettySize=auto;html=1;entryX=0.5;entryY=0;entryDx=0;entryDy=0;shadow=0;endArrow=classic;endFill=1;entryPerimeter=0;" parent="1" source="3" target="9tZPUWjpOHRcXfGkSOgZ-13" edge="1">
                    <mxGeometry relative="1" as="geometry">
                        <mxPoint x="417.5" y="350" as="targetPoint"/>
                    </mxGeometry>
                </mxCell>
                <mxCell id="3" value="tritt ravens&#10; Gruppe bei" style="ellipse;sketch=1;shadow=0;rounded=1;dashed=0;verticalAlign=middle;fillColor=#000000;arcSize=10;" parent="1" vertex="1">
                    <mxGeometry x="348" y="240" width="155" height="45" as="geometry"/>
                </mxCell>
                <mxCell id="8" style="edgeStyle=orthogonalEdgeStyle;rounded=1;orthogonalLoop=1;jettySize=auto;html=1;entryX=0;entryY=0.5;entryDx=0;entryDy=0;entryPerimeter=0;sketch=1;shadow=0;endArrow=none;endFill=0;dashed=1;" parent="1" source="5" target="7" edge="1">
                    <mxGeometry relative="1" as="geometry"/>
                </mxCell>
                <mxCell id="11" style="edgeStyle=orthogonalEdgeStyle;rounded=1;sketch=1;orthogonalLoop=1;jettySize=auto;html=1;entryX=0.5;entryY=0;entryDx=0;entryDy=0;shadow=0;endArrow=classic;endFill=1;" parent="1" source="5" target="3" edge="1">
                    <mxGeometry relative="1" as="geometry"/>
                </mxCell>
                <mxCell id="5" value="Auslöser-Event" style="html=1;align=center;verticalAlign=top;rounded=1;absoluteArcSize=1;arcSize=10;dashed=0;sketch=1;shadow=0;fillColor=#000000;" parent="1" vertex="1">
                    <mxGeometry x="348" y="140" width="155" height="40" as="geometry"/>
                </mxCell>
                <mxCell id="7" value="&lt;font style=&quot;font-size: 10px&quot;&gt;Videosequenz, in der die aktuelle Lage, bzw. das Auslöser-Event dargestellt wird&lt;/font&gt;" style="shape=note2;boundedLbl=1;whiteSpace=wrap;html=1;size=25;verticalAlign=top;align=left;sketch=1;shadow=0;rounded=1;dashed=0;fillColor=#000000;arcSize=10;" parent="1" vertex="1">
                    <mxGeometry x="570" y="60" width="130" height="100" as="geometry"/>
                </mxCell>
                <mxCell id="Re3N0-IcKikxDVmbPH-R-16" value="" style="edgeStyle=none;sketch=1;html=1;shadow=0;startArrow=none;startFill=0;endArrow=classic;endFill=1;" parent="1" source="9tZPUWjpOHRcXfGkSOgZ-13" target="Re3N0-IcKikxDVmbPH-R-13" edge="1">
                    <mxGeometry relative="1" as="geometry"/>
                </mxCell>
                <mxCell id="9tZPUWjpOHRcXfGkSOgZ-13" value="&lt;p style=&quot;text-align: right ; line-height: 90%&quot;&gt;&lt;span style=&quot;line-height: 20%&quot;&gt;Tutorial&lt;/span&gt;&lt;br&gt;&lt;/p&gt;" style="shape=mxgraph.uml25.behaviorAction;html=1;rounded=1;absoluteArcSize=1;arcSize=10;align=center;shadow=0;sketch=1;dashed=0;verticalAlign=top;fillColor=#000000;" parent="1" vertex="1">
                    <mxGeometry x="338" y="360" width="175" height="50" as="geometry"/>
                </mxCell>
                <mxCell id="Re3N0-IcKikxDVmbPH-R-18" style="edgeStyle=none;sketch=1;html=1;entryX=0.5;entryY=0;entryDx=0;entryDy=0;shadow=0;startArrow=none;startFill=0;endArrow=classic;endFill=1;" parent="1" source="Re3N0-IcKikxDVmbPH-R-13" target="Re3N0-IcKikxDVmbPH-R-17" edge="1">
                    <mxGeometry relative="1" as="geometry"/>
                </mxCell>
                <mxCell id="2rEg-ysW71HZh9nriamH-17" style="edgeStyle=none;sketch=1;html=1;entryX=0.5;entryY=0;entryDx=0;entryDy=0;endArrow=classic;endFill=1;" parent="1" source="Re3N0-IcKikxDVmbPH-R-13" target="2rEg-ysW71HZh9nriamH-13" edge="1">
                    <mxGeometry relative="1" as="geometry">
                        <Array as="points">
                            <mxPoint x="148" y="509"/>
                        </Array>
                    </mxGeometry>
                </mxCell>
                <mxCell id="Re3N0-IcKikxDVmbPH-R-13" value="" style="rhombus;rounded=1;shadow=0;dashed=0;sketch=1;strokeColor=#f0f0f0;fillColor=#000000;verticalAlign=middle;" parent="1" vertex="1">
                    <mxGeometry x="410.5" y="490" width="30" height="30" as="geometry"/>
                </mxCell>
                <mxCell id="Re3N0-IcKikxDVmbPH-R-21" style="edgeStyle=none;sketch=1;html=1;entryX=0.5;entryY=1;entryDx=0;entryDy=0;shadow=0;startArrow=none;startFill=0;endArrow=classic;endFill=1;jumpStyle=none;" parent="1" target="Re3N0-IcKikxDVmbPH-R-20" edge="1">
                    <mxGeometry relative="1" as="geometry">
                        <Array as="points">
                            <mxPoint x="658" y="705"/>
                        </Array>
                        <mxPoint x="440" y="705" as="sourcePoint"/>
                    </mxGeometry>
                </mxCell>
                <mxCell id="2rEg-ysW71HZh9nriamH-16" value="" style="edgeStyle=none;sketch=1;html=1;endArrow=classic;endFill=1;" parent="1" source="Re3N0-IcKikxDVmbPH-R-17" target="2rEg-ysW71HZh9nriamH-15" edge="1">
                    <mxGeometry relative="1" as="geometry"/>
                </mxCell>
                <mxCell id="Re3N0-IcKikxDVmbPH-R-17" value="Minigames" style="ellipse;sketch=1;shadow=0;rounded=1;dashed=0;verticalAlign=middle;fillColor=#000000;arcSize=10;" parent="1" vertex="1">
                    <mxGeometry x="348" y="590" width="155" height="45" as="geometry"/>
                </mxCell>
                <mxCell id="Re3N0-IcKikxDVmbPH-R-22" style="edgeStyle=none;sketch=1;jumpStyle=none;html=1;entryX=1;entryY=0.5;entryDx=0;entryDy=0;shadow=0;startArrow=none;startFill=0;endArrow=classic;endFill=1;exitX=0.516;exitY=0;exitDx=0;exitDy=0;exitPerimeter=0;" parent="1" source="Re3N0-IcKikxDVmbPH-R-20" target="Re3N0-IcKikxDVmbPH-R-13" edge="1">
                    <mxGeometry relative="1" as="geometry">
                        <Array as="points">
                            <mxPoint x="660" y="505"/>
                        </Array>
                    </mxGeometry>
                </mxCell>
                <mxCell id="Re3N0-IcKikxDVmbPH-R-20" value="Aufstieg in der &lt;br&gt;Rangordnung / Anstieg INF" style="html=1;align=center;verticalAlign=top;rounded=1;absoluteArcSize=1;arcSize=10;dashed=0;sketch=1;shadow=0;fillColor=#000000;" parent="1" vertex="1">
                    <mxGeometry x="580" y="592.5" width="155" height="40" as="geometry"/>
                </mxCell>
                <mxCell id="2rEg-ysW71HZh9nriamH-19" value="" style="edgeStyle=none;sketch=1;html=1;endArrow=classic;endFill=1;" parent="1" source="2rEg-ysW71HZh9nriamH-13" target="2rEg-ysW71HZh9nriamH-18" edge="1">
                    <mxGeometry relative="1" as="geometry"/>
                </mxCell>
                <mxCell id="2rEg-ysW71HZh9nriamH-13" value="Follower Beförderm" style="ellipse;sketch=1;shadow=0;rounded=1;dashed=0;verticalAlign=middle;fillColor=#000000;arcSize=10;" parent="1" vertex="1">
                    <mxGeometry x="70" y="590" width="155" height="45" as="geometry"/>
                </mxCell>
                <mxCell id="2rEg-ysW71HZh9nriamH-15" value="" style="rhombus;rounded=1;shadow=0;dashed=0;sketch=1;strokeColor=#f0f0f0;fillColor=#000000;verticalAlign=middle;" parent="1" vertex="1">
                    <mxGeometry x="410" y="690" width="30" height="30" as="geometry"/>
                </mxCell>
                <mxCell id="2rEg-ysW71HZh9nriamH-20" style="edgeStyle=none;sketch=1;html=1;entryX=0;entryY=0.5;entryDx=0;entryDy=0;endArrow=classic;endFill=1;" parent="1" source="2rEg-ysW71HZh9nriamH-18" target="2rEg-ysW71HZh9nriamH-15" edge="1">
                    <mxGeometry relative="1" as="geometry"/>
                </mxCell>
                <mxCell id="2rEg-ysW71HZh9nriamH-22" value="" style="edgeStyle=none;sketch=1;html=1;endArrow=classic;endFill=1;" parent="1" source="2rEg-ysW71HZh9nriamH-18" target="2rEg-ysW71HZh9nriamH-21" edge="1">
                    <mxGeometry relative="1" as="geometry"/>
                </mxCell>
                <mxCell id="2rEg-ysW71HZh9nriamH-18" value="" style="rhombus;rounded=1;shadow=0;dashed=0;sketch=1;strokeColor=#f0f0f0;fillColor=#000000;verticalAlign=middle;" parent="1" vertex="1">
                    <mxGeometry x="132.5" y="690" width="30" height="30" as="geometry"/>
                </mxCell>
                <mxCell id="2rEg-ysW71HZh9nriamH-23" style="edgeStyle=none;sketch=1;html=1;entryX=0.5;entryY=1;entryDx=0;entryDy=0;endArrow=classic;endFill=1;" parent="1" source="2rEg-ysW71HZh9nriamH-21" target="2rEg-ysW71HZh9nriamH-15" edge="1">
                    <mxGeometry relative="1" as="geometry">
                        <Array as="points">
                            <mxPoint x="425" y="807"/>
                        </Array>
                    </mxGeometry>
                </mxCell>
                <mxCell id="2rEg-ysW71HZh9nriamH-21" value="Gebiet/Aufgabenbereich&#10; an Follower abgeben" style="ellipse;sketch=1;shadow=0;rounded=1;dashed=0;verticalAlign=middle;fillColor=#000000;arcSize=10;" parent="1" vertex="1">
                    <mxGeometry x="70" y="780" width="155" height="60" as="geometry"/>
                </mxCell>
                <mxCell id="BbYcGQPHmIxh3Ic0CF0f-15" value="" style="edgeStyle=none;html=1;" parent="1" source="BbYcGQPHmIxh3Ic0CF0f-13" target="5" edge="1">
                    <mxGeometry relative="1" as="geometry"/>
                </mxCell>
                <mxCell id="BbYcGQPHmIxh3Ic0CF0f-13" value="tritt ravens SM&#10; Gruppe bei" style="ellipse;sketch=1;shadow=0;rounded=1;dashed=0;verticalAlign=middle;fillColor=#000000;arcSize=10;" parent="1" vertex="1">
                    <mxGeometry x="348" y="10" width="155" height="45" as="geometry"/>
                </mxCell>
            </root>
        </mxGraphModel>
    </diagram>
    <diagram id="Bbr1qVQh75SRVNP4AOuS" name="Tutorial">
        <mxGraphModel dx="2224" dy="756" grid="1" gridSize="10" guides="1" tooltips="1" connect="1" arrows="1" fold="1" page="1" pageScale="1" pageWidth="850" pageHeight="1100" math="0" shadow="0">
            <root>
                <mxCell id="o1Tf9lwmRod_yA9XSVbb-0"/>
                <mxCell id="o1Tf9lwmRod_yA9XSVbb-1" parent="o1Tf9lwmRod_yA9XSVbb-0"/>
                <mxCell id="qB3-5tiRR4BEqNub9dUn-2" value="" style="edgeStyle=none;html=1;endArrow=classic;endFill=1;sketch=1;" parent="o1Tf9lwmRod_yA9XSVbb-1" source="azKDcFSqx4I3B4IWg0BS-1" target="azKDcFSqx4I3B4IWg0BS-2" edge="1">
                    <mxGeometry relative="1" as="geometry"/>
                </mxCell>
                <mxCell id="azKDcFSqx4I3B4IWg0BS-1" value="" style="ellipse;sketch=1;shadow=0;fillStyle=zigzag;fillColor=#000000;" parent="o1Tf9lwmRod_yA9XSVbb-1" vertex="1">
                    <mxGeometry x="402" y="50" width="30" height="30" as="geometry"/>
                </mxCell>
                <mxCell id="qB3-5tiRR4BEqNub9dUn-1" style="edgeStyle=none;html=1;endArrow=none;endFill=0;dashed=1;" parent="o1Tf9lwmRod_yA9XSVbb-1" source="azKDcFSqx4I3B4IWg0BS-2" target="qB3-5tiRR4BEqNub9dUn-0" edge="1">
                    <mxGeometry relative="1" as="geometry"/>
                </mxCell>
                <mxCell id="qB3-5tiRR4BEqNub9dUn-3" value="" style="edgeStyle=none;sketch=1;html=1;endArrow=classic;endFill=1;" parent="o1Tf9lwmRod_yA9XSVbb-1" source="azKDcFSqx4I3B4IWg0BS-2" target="azKDcFSqx4I3B4IWg0BS-5" edge="1">
                    <mxGeometry relative="1" as="geometry"/>
                </mxCell>
                <mxCell id="azKDcFSqx4I3B4IWg0BS-2" value="Chat beobachten" style="ellipse;sketch=1;shadow=0;rounded=1;dashed=0;verticalAlign=middle;fillColor=#000000;arcSize=10;" parent="o1Tf9lwmRod_yA9XSVbb-1" vertex="1">
                    <mxGeometry x="339.5" y="170" width="155" height="45" as="geometry"/>
                </mxCell>
                <mxCell id="azKDcFSqx4I3B4IWg0BS-3" style="edgeStyle=orthogonalEdgeStyle;rounded=1;orthogonalLoop=1;jettySize=auto;html=1;entryX=0;entryY=0.5;entryDx=0;entryDy=0;entryPerimeter=0;sketch=1;shadow=0;endArrow=none;endFill=0;dashed=1;" parent="o1Tf9lwmRod_yA9XSVbb-1" source="azKDcFSqx4I3B4IWg0BS-5" target="azKDcFSqx4I3B4IWg0BS-6" edge="1">
                    <mxGeometry relative="1" as="geometry"/>
                </mxCell>
                <mxCell id="qB3-5tiRR4BEqNub9dUn-9" value="" style="edgeStyle=none;sketch=1;html=1;endArrow=classic;endFill=1;" parent="o1Tf9lwmRod_yA9XSVbb-1" source="azKDcFSqx4I3B4IWg0BS-5" target="qB3-5tiRR4BEqNub9dUn-8" edge="1">
                    <mxGeometry relative="1" as="geometry"/>
                </mxCell>
                <mxCell id="azKDcFSqx4I3B4IWg0BS-5" value="Begrüßung und Einweisung&lt;br&gt;durch Mentor" style="html=1;align=center;verticalAlign=top;rounded=1;absoluteArcSize=1;arcSize=10;dashed=0;sketch=1;shadow=0;fillColor=#000000;" parent="o1Tf9lwmRod_yA9XSVbb-1" vertex="1">
                    <mxGeometry x="339.5" y="310" width="155" height="40" as="geometry"/>
                </mxCell>
                <mxCell id="azKDcFSqx4I3B4IWg0BS-6" value="Spielregeln und Werte der Gruppe werden erklärt, Ravens Kodex" style="shape=note2;boundedLbl=1;whiteSpace=wrap;html=1;size=25;verticalAlign=top;align=left;sketch=1;shadow=0;rounded=1;dashed=0;fillColor=#000000;arcSize=10;" parent="o1Tf9lwmRod_yA9XSVbb-1" vertex="1">
                    <mxGeometry x="620" y="240" width="160" height="100" as="geometry"/>
                </mxCell>
                <mxCell id="qB3-5tiRR4BEqNub9dUn-0" value="Diskussion zwischen den Mitgliedern über das vorangegangene Event&amp;nbsp;" style="shape=note2;boundedLbl=1;whiteSpace=wrap;html=1;size=25;verticalAlign=top;align=left;sketch=1;shadow=0;rounded=1;dashed=0;fillColor=#000000;arcSize=10;" parent="o1Tf9lwmRod_yA9XSVbb-1" vertex="1">
                    <mxGeometry x="610" y="85" width="130" height="100" as="geometry"/>
                </mxCell>
                <mxCell id="qB3-5tiRR4BEqNub9dUn-12" style="edgeStyle=none;sketch=1;html=1;endArrow=none;endFill=0;dashed=1;" parent="o1Tf9lwmRod_yA9XSVbb-1" source="qB3-5tiRR4BEqNub9dUn-4" target="qB3-5tiRR4BEqNub9dUn-11" edge="1">
                    <mxGeometry relative="1" as="geometry"/>
                </mxCell>
                <mxCell id="ZxRenWKVaoFHqbeEonqM-7" value="" style="edgeStyle=none;sketch=1;html=1;endArrow=classic;endFill=1;" parent="o1Tf9lwmRod_yA9XSVbb-1" source="qB3-5tiRR4BEqNub9dUn-4" target="ZxRenWKVaoFHqbeEonqM-5" edge="1">
                    <mxGeometry relative="1" as="geometry"/>
                </mxCell>
                <mxCell id="qB3-5tiRR4BEqNub9dUn-4" value="Auf Fragebogen antworten" style="ellipse;sketch=1;shadow=0;rounded=1;dashed=0;verticalAlign=middle;fillColor=#000000;arcSize=10;" parent="o1Tf9lwmRod_yA9XSVbb-1" vertex="1">
                    <mxGeometry x="326.75" y="510" width="180.5" height="45" as="geometry"/>
                </mxCell>
                <mxCell id="qB3-5tiRR4BEqNub9dUn-10" value="" style="edgeStyle=none;sketch=1;html=1;endArrow=classic;endFill=1;" parent="o1Tf9lwmRod_yA9XSVbb-1" source="qB3-5tiRR4BEqNub9dUn-8" target="qB3-5tiRR4BEqNub9dUn-4" edge="1">
                    <mxGeometry relative="1" as="geometry"/>
                </mxCell>
                <mxCell id="qB3-5tiRR4BEqNub9dUn-14" style="edgeStyle=none;sketch=1;html=1;dashed=1;endArrow=none;endFill=0;entryX=1;entryY=0.438;entryDx=0;entryDy=0;entryPerimeter=0;" parent="o1Tf9lwmRod_yA9XSVbb-1" source="qB3-5tiRR4BEqNub9dUn-8" target="qB3-5tiRR4BEqNub9dUn-13" edge="1">
                    <mxGeometry relative="1" as="geometry">
                        <mxPoint x="200" y="420" as="targetPoint"/>
                    </mxGeometry>
                </mxCell>
                <mxCell id="qB3-5tiRR4BEqNub9dUn-8" value="Fragebogen für Neulinge" style="html=1;align=center;verticalAlign=top;rounded=1;absoluteArcSize=1;arcSize=10;dashed=0;sketch=1;shadow=0;fillColor=#000000;" parent="o1Tf9lwmRod_yA9XSVbb-1" vertex="1">
                    <mxGeometry x="339.5" y="410" width="155" height="40" as="geometry"/>
                </mxCell>
                <mxCell id="qB3-5tiRR4BEqNub9dUn-11" value="Auswahl von (teilweise)&amp;nbsp; vorgefertigten Antworten" style="shape=note2;boundedLbl=1;whiteSpace=wrap;html=1;size=25;verticalAlign=top;align=left;sketch=1;shadow=0;rounded=1;dashed=0;fillColor=#000000;arcSize=10;" parent="o1Tf9lwmRod_yA9XSVbb-1" vertex="1">
                    <mxGeometry x="650" y="540" width="140" height="85" as="geometry"/>
                </mxCell>
                <mxCell id="qB3-5tiRR4BEqNub9dUn-13" value="- Hast du Body-Modifications? &lt;br&gt;&lt;span style=&quot;white-space: pre&quot;&gt;&#9;&lt;/span&gt;&amp;gt; Nein&lt;br&gt;- Wie alt bist du? &lt;br&gt;&lt;span style=&quot;white-space: pre&quot;&gt;&#9;&lt;/span&gt;&amp;gt; Eingabe durch User&lt;br&gt;- Wie würdest du deine politische Haltung beschreiben?&lt;br&gt;&lt;span style=&quot;white-space: pre&quot;&gt;&#9;&lt;/span&gt;&amp;gt; Konservativ&lt;br&gt;- Warum willst du den Ravens beitreten?&lt;br&gt;- Was sind deine Stärken? (in welche Kategorie eingliedern)&amp;nbsp;&lt;br&gt;- Dein Geschlecht?&lt;br&gt;- Wie sieht deine Abstammungslinie aus (soweit du sie kennst)?&amp;nbsp;&lt;br&gt;&lt;br&gt;- Was bedeutet Freiheit für dich?" style="shape=note2;boundedLbl=1;whiteSpace=wrap;html=1;size=25;verticalAlign=top;align=left;sketch=1;shadow=0;rounded=1;dashed=0;fillColor=#000000;arcSize=10;" parent="o1Tf9lwmRod_yA9XSVbb-1" vertex="1">
                    <mxGeometry x="-160" y="330" width="380" height="220" as="geometry"/>
                </mxCell>
                <mxCell id="RasdxR1i9m1lt3ReuzmW-1" value="" style="edgeStyle=none;sketch=1;html=1;endArrow=classic;endFill=1;" parent="o1Tf9lwmRod_yA9XSVbb-1" source="ZxRenWKVaoFHqbeEonqM-2" target="RasdxR1i9m1lt3ReuzmW-0" edge="1">
                    <mxGeometry relative="1" as="geometry"/>
                </mxCell>
                <mxCell id="ZxRenWKVaoFHqbeEonqM-2" value="Sicherheits Check&lt;br&gt;erfolgreich abgeschlossen!" style="html=1;align=center;verticalAlign=top;rounded=1;absoluteArcSize=1;arcSize=10;dashed=0;sketch=1;shadow=0;fillColor=#000000;" parent="o1Tf9lwmRod_yA9XSVbb-1" vertex="1">
                    <mxGeometry x="339.5" y="700" width="155" height="40" as="geometry"/>
                </mxCell>
                <mxCell id="ZxRenWKVaoFHqbeEonqM-8" value="" style="edgeStyle=none;sketch=1;html=1;endArrow=classic;endFill=1;" parent="o1Tf9lwmRod_yA9XSVbb-1" source="ZxRenWKVaoFHqbeEonqM-5" target="ZxRenWKVaoFHqbeEonqM-2" edge="1">
                    <mxGeometry relative="1" as="geometry"/>
                </mxCell>
                <mxCell id="ZxRenWKVaoFHqbeEonqM-5" value="Unterhaltung über&lt;br&gt;die Ergebnisse" style="html=1;align=center;verticalAlign=top;rounded=1;absoluteArcSize=1;arcSize=10;dashed=0;sketch=1;shadow=0;fillColor=#000000;" parent="o1Tf9lwmRod_yA9XSVbb-1" vertex="1">
                    <mxGeometry x="339.5" y="610" width="155" height="40" as="geometry"/>
                </mxCell>
                <mxCell id="RasdxR1i9m1lt3ReuzmW-3" value="" style="edgeStyle=none;sketch=1;html=1;endArrow=classic;endFill=1;" parent="o1Tf9lwmRod_yA9XSVbb-1" source="ZxRenWKVaoFHqbeEonqM-9" target="ZxRenWKVaoFHqbeEonqM-11" edge="1">
                    <mxGeometry relative="1" as="geometry"/>
                </mxCell>
                <mxCell id="ZxRenWKVaoFHqbeEonqM-9" value="Social Media Post erstellen&#10;und teilen" style="ellipse;sketch=1;shadow=0;rounded=1;dashed=0;verticalAlign=middle;fillColor=#000000;arcSize=10;" parent="o1Tf9lwmRod_yA9XSVbb-1" vertex="1">
                    <mxGeometry x="326.75" y="880" width="180.5" height="60" as="geometry"/>
                </mxCell>
                <mxCell id="ZxRenWKVaoFHqbeEonqM-11" value="Feedback zum Post" style="html=1;align=center;verticalAlign=top;rounded=1;absoluteArcSize=1;arcSize=10;dashed=0;sketch=1;shadow=0;fillColor=#000000;" parent="o1Tf9lwmRod_yA9XSVbb-1" vertex="1">
                    <mxGeometry x="339.5" y="990" width="155" height="40" as="geometry"/>
                </mxCell>
                <mxCell id="RasdxR1i9m1lt3ReuzmW-2" value="" style="edgeStyle=none;sketch=1;html=1;endArrow=classic;endFill=1;" parent="o1Tf9lwmRod_yA9XSVbb-1" source="RasdxR1i9m1lt3ReuzmW-0" target="ZxRenWKVaoFHqbeEonqM-9" edge="1">
                    <mxGeometry relative="1" as="geometry"/>
                </mxCell>
                <mxCell id="RasdxR1i9m1lt3ReuzmW-5" style="edgeStyle=none;sketch=1;html=1;endArrow=classic;endFill=1;dashed=1;" parent="o1Tf9lwmRod_yA9XSVbb-1" source="RasdxR1i9m1lt3ReuzmW-0" target="RasdxR1i9m1lt3ReuzmW-4" edge="1">
                    <mxGeometry relative="1" as="geometry"/>
                </mxCell>
                <mxCell id="RasdxR1i9m1lt3ReuzmW-0" value="" style="rhombus;rounded=1;shadow=0;dashed=0;sketch=1;strokeColor=#f0f0f0;fillColor=#000000;verticalAlign=middle;" parent="o1Tf9lwmRod_yA9XSVbb-1" vertex="1">
                    <mxGeometry x="402" y="800" width="30" height="30" as="geometry"/>
                </mxCell>
                <mxCell id="RasdxR1i9m1lt3ReuzmW-4" value="Erste Aufgabe evtl. von der ausgewählten Kategorie abhängig" style="shape=note2;boundedLbl=1;whiteSpace=wrap;html=1;size=25;verticalAlign=top;align=left;sketch=1;shadow=0;rounded=1;dashed=0;fillColor=#000000;arcSize=10;" parent="o1Tf9lwmRod_yA9XSVbb-1" vertex="1">
                    <mxGeometry x="620" y="770" width="140" height="85" as="geometry"/>
                </mxCell>
            </root>
        </mxGraphModel>
    </diagram>
    <diagram id="RPJoanGvj6N8j-1YFrxk" name="Use Case">
        <mxGraphModel dx="1374" dy="1856" grid="1" gridSize="10" guides="1" tooltips="1" connect="1" arrows="1" fold="1" page="1" pageScale="1" pageWidth="850" pageHeight="1100" math="0" shadow="0">
            <root>
                <mxCell id="vjYIoGKlJ3Qib5mjwYUD-0"/>
                <mxCell id="vjYIoGKlJ3Qib5mjwYUD-1" parent="vjYIoGKlJ3Qib5mjwYUD-0"/>
                <mxCell id="vjYIoGKlJ3Qib5mjwYUD-46" value="RoR" style="shape=umlFrame;whiteSpace=wrap;html=1;width=120;height=30;boundedLbl=1;verticalAlign=middle;align=left;spacingLeft=5;sketch=1;fillColor=#000000;gradientDirection=south;" parent="vjYIoGKlJ3Qib5mjwYUD-1" vertex="1">
                    <mxGeometry x="180" y="-140" width="570" height="667.5" as="geometry"/>
                </mxCell>
                <mxCell id="vjYIoGKlJ3Qib5mjwYUD-17" value="" style="edgeStyle=none;html=1;endArrow=block;endFill=0;startArrow=none;startFill=0;shadow=0;sketch=1;" parent="vjYIoGKlJ3Qib5mjwYUD-1" target="vjYIoGKlJ3Qib5mjwYUD-16" edge="1">
                    <mxGeometry relative="1" as="geometry">
                        <mxPoint x="135" y="170" as="sourcePoint"/>
                    </mxGeometry>
                </mxCell>
                <mxCell id="vjYIoGKlJ3Qib5mjwYUD-22" style="edgeStyle=none;sketch=1;html=1;shadow=0;startArrow=none;startFill=0;endArrow=none;endFill=0;entryX=0;entryY=0.5;entryDx=0;entryDy=0;entryPerimeter=0;" parent="vjYIoGKlJ3Qib5mjwYUD-1" source="vjYIoGKlJ3Qib5mjwYUD-15" target="vjYIoGKlJ3Qib5mjwYUD-21" edge="1">
                    <mxGeometry relative="1" as="geometry">
                        <mxPoint x="350" y="120" as="targetPoint"/>
                    </mxGeometry>
                </mxCell>
                <mxCell id="vjYIoGKlJ3Qib5mjwYUD-27" style="edgeStyle=none;sketch=1;html=1;entryX=0;entryY=0.5;entryDx=0;entryDy=0;shadow=0;startArrow=none;startFill=0;endArrow=none;endFill=0;" parent="vjYIoGKlJ3Qib5mjwYUD-1" source="vjYIoGKlJ3Qib5mjwYUD-15" target="vjYIoGKlJ3Qib5mjwYUD-26" edge="1">
                    <mxGeometry relative="1" as="geometry"/>
                </mxCell>
                <mxCell id="vjYIoGKlJ3Qib5mjwYUD-31" style="edgeStyle=none;sketch=1;html=1;entryX=0;entryY=0.5;entryDx=0;entryDy=0;shadow=0;startArrow=none;startFill=0;endArrow=none;endFill=0;" parent="vjYIoGKlJ3Qib5mjwYUD-1" source="vjYIoGKlJ3Qib5mjwYUD-15" target="vjYIoGKlJ3Qib5mjwYUD-30" edge="1">
                    <mxGeometry relative="1" as="geometry"/>
                </mxCell>
                <mxCell id="vjYIoGKlJ3Qib5mjwYUD-34" style="edgeStyle=none;sketch=1;html=1;entryX=0;entryY=0.5;entryDx=0;entryDy=0;shadow=0;startArrow=none;startFill=0;endArrow=none;endFill=0;" parent="vjYIoGKlJ3Qib5mjwYUD-1" source="vjYIoGKlJ3Qib5mjwYUD-15" target="vjYIoGKlJ3Qib5mjwYUD-33" edge="1">
                    <mxGeometry relative="1" as="geometry"/>
                </mxCell>
                <mxCell id="vjYIoGKlJ3Qib5mjwYUD-36" style="edgeStyle=none;sketch=1;html=1;shadow=0;startArrow=none;startFill=0;endArrow=none;endFill=0;entryX=0.273;entryY=0;entryDx=0;entryDy=0;entryPerimeter=0;" parent="vjYIoGKlJ3Qib5mjwYUD-1" source="vjYIoGKlJ3Qib5mjwYUD-15" target="vjYIoGKlJ3Qib5mjwYUD-35" edge="1">
                    <mxGeometry relative="1" as="geometry">
                        <mxPoint x="470" y="430" as="targetPoint"/>
                    </mxGeometry>
                </mxCell>
                <mxCell id="vjYIoGKlJ3Qib5mjwYUD-40" style="edgeStyle=none;sketch=1;html=1;shadow=0;startArrow=none;startFill=0;endArrow=none;endFill=0;entryX=0;entryY=0.4;entryDx=0;entryDy=0;entryPerimeter=0;" parent="vjYIoGKlJ3Qib5mjwYUD-1" source="vjYIoGKlJ3Qib5mjwYUD-15" target="vjYIoGKlJ3Qib5mjwYUD-39" edge="1">
                    <mxGeometry relative="1" as="geometry">
                        <mxPoint x="520" y="200" as="targetPoint"/>
                    </mxGeometry>
                </mxCell>
                <mxCell id="vjYIoGKlJ3Qib5mjwYUD-44" style="edgeStyle=none;sketch=1;html=1;entryX=0;entryY=0.5;entryDx=0;entryDy=0;shadow=0;startArrow=none;startFill=0;endArrow=none;endFill=0;" parent="vjYIoGKlJ3Qib5mjwYUD-1" source="vjYIoGKlJ3Qib5mjwYUD-15" target="vjYIoGKlJ3Qib5mjwYUD-43" edge="1">
                    <mxGeometry relative="1" as="geometry"/>
                </mxCell>
                <mxCell id="vjYIoGKlJ3Qib5mjwYUD-15" value="Leader" style="shape=umlActor;verticalLabelPosition=bottom;verticalAlign=top;html=1;sketch=1;" parent="vjYIoGKlJ3Qib5mjwYUD-1" vertex="1">
                    <mxGeometry x="120" y="90" width="30" height="60" as="geometry"/>
                </mxCell>
                <mxCell id="vjYIoGKlJ3Qib5mjwYUD-25" style="edgeStyle=none;sketch=1;html=1;shadow=0;startArrow=none;startFill=0;endArrow=none;endFill=0;entryX=0;entryY=0.508;entryDx=0;entryDy=0;entryPerimeter=0;" parent="vjYIoGKlJ3Qib5mjwYUD-1" source="vjYIoGKlJ3Qib5mjwYUD-16" target="vjYIoGKlJ3Qib5mjwYUD-20" edge="1">
                    <mxGeometry relative="1" as="geometry">
                        <mxPoint x="240" y="390" as="targetPoint"/>
                    </mxGeometry>
                </mxCell>
                <mxCell id="vjYIoGKlJ3Qib5mjwYUD-16" value="Follower" style="shape=umlActor;verticalLabelPosition=bottom;verticalAlign=top;html=1;sketch=1;" parent="vjYIoGKlJ3Qib5mjwYUD-1" vertex="1">
                    <mxGeometry x="120" y="350" width="30" height="60" as="geometry"/>
                </mxCell>
                <mxCell id="vjYIoGKlJ3Qib5mjwYUD-20" value="Minigames" style="ellipse;sketch=1;fillStyle=zigzag;fillColor=#000000;" parent="vjYIoGKlJ3Qib5mjwYUD-1" vertex="1">
                    <mxGeometry x="250" y="364.6" width="110" height="50" as="geometry"/>
                </mxCell>
                <mxCell id="vjYIoGKlJ3Qib5mjwYUD-21" value="Ressourcen-&#10;management" style="ellipse;sketch=1;fillStyle=zigzag;fillColor=#000000;" parent="vjYIoGKlJ3Qib5mjwYUD-1" vertex="1">
                    <mxGeometry x="280" y="-60" width="110" height="50" as="geometry"/>
                </mxCell>
                <mxCell id="vjYIoGKlJ3Qib5mjwYUD-32" style="edgeStyle=none;sketch=1;html=1;entryX=0.5;entryY=0;entryDx=0;entryDy=0;shadow=0;startArrow=none;startFill=0;endArrow=open;endFill=0;dashed=1;" parent="vjYIoGKlJ3Qib5mjwYUD-1" source="vjYIoGKlJ3Qib5mjwYUD-26" target="vjYIoGKlJ3Qib5mjwYUD-30" edge="1">
                    <mxGeometry relative="1" as="geometry"/>
                </mxCell>
                <mxCell id="vjYIoGKlJ3Qib5mjwYUD-26" value="Follower anwerben" style="ellipse;sketch=1;fillStyle=zigzag;fillColor=#000000;" parent="vjYIoGKlJ3Qib5mjwYUD-1" vertex="1">
                    <mxGeometry x="445" y="-10" width="110" height="50" as="geometry"/>
                </mxCell>
                <mxCell id="vjYIoGKlJ3Qib5mjwYUD-29" style="edgeStyle=none;sketch=1;html=1;shadow=0;startArrow=none;startFill=0;endArrow=block;endFill=0;exitX=0.5;exitY=0.018;exitDx=0;exitDy=0;exitPerimeter=0;" parent="vjYIoGKlJ3Qib5mjwYUD-1" source="vjYIoGKlJ3Qib5mjwYUD-28" edge="1">
                    <mxGeometry relative="1" as="geometry">
                        <mxPoint x="50" y="471.1033472521552" as="sourcePoint"/>
                        <mxPoint x="110" y="170" as="targetPoint"/>
                    </mxGeometry>
                </mxCell>
                <mxCell id="vjYIoGKlJ3Qib5mjwYUD-42" style="edgeStyle=none;sketch=1;html=1;shadow=0;startArrow=none;startFill=0;endArrow=none;endFill=0;entryX=0.091;entryY=0.8;entryDx=0;entryDy=0;entryPerimeter=0;" parent="vjYIoGKlJ3Qib5mjwYUD-1" source="vjYIoGKlJ3Qib5mjwYUD-28" target="vjYIoGKlJ3Qib5mjwYUD-35" edge="1">
                    <mxGeometry relative="1" as="geometry">
                        <mxPoint x="300" y="480" as="targetPoint"/>
                    </mxGeometry>
                </mxCell>
                <mxCell id="vjYIoGKlJ3Qib5mjwYUD-28" value="Mentor&lt;br&gt;(NPC)" style="shape=umlActor;verticalLabelPosition=bottom;verticalAlign=top;html=1;sketch=1;" parent="vjYIoGKlJ3Qib5mjwYUD-1" vertex="1">
                    <mxGeometry x="30" y="470" width="30" height="60" as="geometry"/>
                </mxCell>
                <mxCell id="vjYIoGKlJ3Qib5mjwYUD-30" value="Follower-&#10;-management" style="ellipse;sketch=1;fillStyle=zigzag;fillColor=#000000;" parent="vjYIoGKlJ3Qib5mjwYUD-1" vertex="1">
                    <mxGeometry x="535" y="70" width="110" height="50" as="geometry"/>
                </mxCell>
                <mxCell id="vjYIoGKlJ3Qib5mjwYUD-38" style="edgeStyle=none;sketch=1;html=1;entryX=0.455;entryY=0;entryDx=0;entryDy=0;shadow=0;dashed=1;startArrow=none;startFill=0;endArrow=open;endFill=0;entryPerimeter=0;" parent="vjYIoGKlJ3Qib5mjwYUD-1" source="vjYIoGKlJ3Qib5mjwYUD-33" target="vjYIoGKlJ3Qib5mjwYUD-35" edge="1">
                    <mxGeometry relative="1" as="geometry"/>
                </mxCell>
                <mxCell id="vjYIoGKlJ3Qib5mjwYUD-33" value="Reaktion auf&#10;World Events" style="ellipse;sketch=1;fillStyle=zigzag;fillColor=#000000;" parent="vjYIoGKlJ3Qib5mjwYUD-1" vertex="1">
                    <mxGeometry x="410" y="280" width="110" height="50" as="geometry"/>
                </mxCell>
                <mxCell id="vjYIoGKlJ3Qib5mjwYUD-37" style="edgeStyle=none;sketch=1;html=1;shadow=0;startArrow=none;startFill=0;endArrow=open;endFill=0;dashed=1;" parent="vjYIoGKlJ3Qib5mjwYUD-1" source="vjYIoGKlJ3Qib5mjwYUD-35" target="vjYIoGKlJ3Qib5mjwYUD-20" edge="1">
                    <mxGeometry relative="1" as="geometry"/>
                </mxCell>
                <mxCell id="vjYIoGKlJ3Qib5mjwYUD-35" value="Tasks auswählen&#10;&amp; zuteilen" style="ellipse;sketch=1;fillStyle=zigzag;fillColor=#000000;" parent="vjYIoGKlJ3Qib5mjwYUD-1" vertex="1">
                    <mxGeometry x="440" y="430" width="110" height="50" as="geometry"/>
                </mxCell>
                <mxCell id="vjYIoGKlJ3Qib5mjwYUD-41" style="edgeStyle=none;sketch=1;html=1;shadow=0;startArrow=none;startFill=0;endArrow=open;endFill=0;dashed=1;entryX=0.727;entryY=0;entryDx=0;entryDy=0;entryPerimeter=0;" parent="vjYIoGKlJ3Qib5mjwYUD-1" source="vjYIoGKlJ3Qib5mjwYUD-39" target="vjYIoGKlJ3Qib5mjwYUD-35" edge="1">
                    <mxGeometry relative="1" as="geometry">
                        <mxPoint x="510" y="340" as="targetPoint"/>
                    </mxGeometry>
                </mxCell>
                <mxCell id="vjYIoGKlJ3Qib5mjwYUD-39" value="Projekte initiieren" style="ellipse;sketch=1;fillStyle=zigzag;fillColor=#000000;" parent="vjYIoGKlJ3Qib5mjwYUD-1" vertex="1">
                    <mxGeometry x="610" y="150" width="110" height="50" as="geometry"/>
                </mxCell>
                <mxCell id="vjYIoGKlJ3Qib5mjwYUD-45" style="edgeStyle=none;sketch=1;html=1;entryX=0.5;entryY=0;entryDx=0;entryDy=0;shadow=0;startArrow=none;startFill=0;endArrow=open;endFill=0;dashed=1;" parent="vjYIoGKlJ3Qib5mjwYUD-1" source="vjYIoGKlJ3Qib5mjwYUD-43" target="vjYIoGKlJ3Qib5mjwYUD-33" edge="1">
                    <mxGeometry relative="1" as="geometry"/>
                </mxCell>
                <mxCell id="vjYIoGKlJ3Qib5mjwYUD-43" value="World Events &#10;generieren" style="ellipse;sketch=1;fillStyle=zigzag;fillColor=#000000;" parent="vjYIoGKlJ3Qib5mjwYUD-1" vertex="1">
                    <mxGeometry x="440" y="190" width="110" height="50" as="geometry"/>
                </mxCell>
            </root>
        </mxGraphModel>
    </diagram>
</mxfile>